<mxfile host="app.diagrams.net" agent="Mozilla/5.0 (X11; Linux x86_64; rv:136.0) Gecko/20100101 Firefox/136.0" version="26.1.1">
  <diagram name="Page-1" id="LX342JlXSvGSfYBJ2ak4">
    <mxGraphModel dx="989" dy="567" grid="1" gridSize="10" guides="1" tooltips="1" connect="1" arrows="1" fold="1" page="1" pageScale="1" pageWidth="850" pageHeight="1100" math="0" shadow="0">
      <root>
        <mxCell id="0" />
        <mxCell id="1" parent="0" />
        <mxCell id="JE43KAWBD0UbRFeS0B9w-4" value="" style="edgeStyle=orthogonalEdgeStyle;rounded=0;orthogonalLoop=1;jettySize=auto;html=1;" edge="1" parent="1" source="JE43KAWBD0UbRFeS0B9w-2" target="JE43KAWBD0UbRFeS0B9w-3">
          <mxGeometry relative="1" as="geometry" />
        </mxCell>
        <mxCell id="JE43KAWBD0UbRFeS0B9w-5" value="User input is parsed" style="edgeLabel;html=1;align=center;verticalAlign=middle;resizable=0;points=[];" vertex="1" connectable="0" parent="JE43KAWBD0UbRFeS0B9w-4">
          <mxGeometry x="-0.1446" y="-1" relative="1" as="geometry">
            <mxPoint as="offset" />
          </mxGeometry>
        </mxCell>
        <mxCell id="JE43KAWBD0UbRFeS0B9w-2" value="set:m19 and legal:commander and name:/goblin.*/" style="rounded=0;whiteSpace=wrap;html=1;" vertex="1" parent="1">
          <mxGeometry x="200" y="110" width="320" height="30" as="geometry" />
        </mxCell>
        <mxCell id="JE43KAWBD0UbRFeS0B9w-7" value="" style="edgeStyle=orthogonalEdgeStyle;rounded=0;orthogonalLoop=1;jettySize=auto;html=1;" edge="1" parent="1" source="JE43KAWBD0UbRFeS0B9w-3" target="JE43KAWBD0UbRFeS0B9w-6">
          <mxGeometry relative="1" as="geometry" />
        </mxCell>
        <mxCell id="JE43KAWBD0UbRFeS0B9w-3" value="Parser" style="whiteSpace=wrap;html=1;rounded=0;" vertex="1" parent="1">
          <mxGeometry x="300" y="205" width="120" height="60" as="geometry" />
        </mxCell>
        <mxCell id="JE43KAWBD0UbRFeS0B9w-9" value="" style="edgeStyle=orthogonalEdgeStyle;rounded=0;orthogonalLoop=1;jettySize=auto;html=1;" edge="1" parent="1" source="JE43KAWBD0UbRFeS0B9w-6" target="JE43KAWBD0UbRFeS0B9w-8">
          <mxGeometry relative="1" as="geometry" />
        </mxCell>
        <mxCell id="JE43KAWBD0UbRFeS0B9w-6" value="Optimiser" style="whiteSpace=wrap;html=1;rounded=0;" vertex="1" parent="1">
          <mxGeometry x="300" y="345" width="120" height="60" as="geometry" />
        </mxCell>
        <mxCell id="JE43KAWBD0UbRFeS0B9w-11" value="" style="edgeStyle=orthogonalEdgeStyle;rounded=0;orthogonalLoop=1;jettySize=auto;html=1;" edge="1" parent="1" source="JE43KAWBD0UbRFeS0B9w-8" target="JE43KAWBD0UbRFeS0B9w-10">
          <mxGeometry relative="1" as="geometry" />
        </mxCell>
        <mxCell id="JE43KAWBD0UbRFeS0B9w-8" value="Interpreter" style="whiteSpace=wrap;html=1;rounded=0;" vertex="1" parent="1">
          <mxGeometry x="300" y="485" width="120" height="60" as="geometry" />
        </mxCell>
        <mxCell id="JE43KAWBD0UbRFeS0B9w-10" value="Output" style="whiteSpace=wrap;html=1;rounded=0;" vertex="1" parent="1">
          <mxGeometry x="300" y="625" width="120" height="60" as="geometry" />
        </mxCell>
        <mxCell id="JE43KAWBD0UbRFeS0B9w-13" value="name:/goblin .*/" style="rounded=0;whiteSpace=wrap;html=1;fillColor=#e1d5e7;strokeColor=#9673a6;" vertex="1" parent="1">
          <mxGeometry x="620" y="95" width="120" height="60" as="geometry" />
        </mxCell>
        <mxCell id="JE43KAWBD0UbRFeS0B9w-15" style="edgeStyle=orthogonalEdgeStyle;rounded=0;orthogonalLoop=1;jettySize=auto;html=1;entryX=0.5;entryY=1;entryDx=0;entryDy=0;" edge="1" parent="1" source="JE43KAWBD0UbRFeS0B9w-14" target="JE43KAWBD0UbRFeS0B9w-13">
          <mxGeometry relative="1" as="geometry" />
        </mxCell>
        <mxCell id="JE43KAWBD0UbRFeS0B9w-14" value="and" style="rounded=0;whiteSpace=wrap;html=1;fillColor=#fff2cc;strokeColor=#d6b656;" vertex="1" parent="1">
          <mxGeometry x="620" y="210" width="120" height="60" as="geometry" />
        </mxCell>
        <mxCell id="JE43KAWBD0UbRFeS0B9w-18" style="edgeStyle=orthogonalEdgeStyle;rounded=0;orthogonalLoop=1;jettySize=auto;html=1;entryX=0;entryY=0.5;entryDx=0;entryDy=0;" edge="1" parent="1" source="JE43KAWBD0UbRFeS0B9w-16" target="JE43KAWBD0UbRFeS0B9w-14">
          <mxGeometry relative="1" as="geometry" />
        </mxCell>
        <mxCell id="JE43KAWBD0UbRFeS0B9w-16" value="set:m19" style="rounded=0;whiteSpace=wrap;html=1;fillColor=#f8cecc;strokeColor=#b85450;" vertex="1" parent="1">
          <mxGeometry x="500" y="320" width="120" height="60" as="geometry" />
        </mxCell>
        <mxCell id="JE43KAWBD0UbRFeS0B9w-19" style="edgeStyle=orthogonalEdgeStyle;rounded=0;orthogonalLoop=1;jettySize=auto;html=1;entryX=1;entryY=0.5;entryDx=0;entryDy=0;" edge="1" parent="1" source="JE43KAWBD0UbRFeS0B9w-17" target="JE43KAWBD0UbRFeS0B9w-14">
          <mxGeometry relative="1" as="geometry" />
        </mxCell>
        <mxCell id="JE43KAWBD0UbRFeS0B9w-17" value="legal:commander" style="rounded=0;whiteSpace=wrap;html=1;fillColor=#f8cecc;strokeColor=#b85450;" vertex="1" parent="1">
          <mxGeometry x="740" y="320" width="120" height="60" as="geometry" />
        </mxCell>
        <mxCell id="JE43KAWBD0UbRFeS0B9w-20" value="Process of handling input" style="text;html=1;align=center;verticalAlign=middle;whiteSpace=wrap;rounded=0;" vertex="1" parent="1">
          <mxGeometry x="290" y="20" width="140" height="30" as="geometry" />
        </mxCell>
        <mxCell id="JE43KAWBD0UbRFeS0B9w-21" value="Optimised Interpreter Tree" style="text;html=1;align=center;verticalAlign=middle;whiteSpace=wrap;rounded=0;" vertex="1" parent="1">
          <mxGeometry x="605" y="20" width="150" height="30" as="geometry" />
        </mxCell>
        <mxCell id="JE43KAWBD0UbRFeS0B9w-22" value="&lt;div&gt;Consumer&lt;/div&gt;&lt;div&gt;akin to .filter() in JS&lt;/div&gt;" style="rounded=0;whiteSpace=wrap;html=1;fillColor=#e1d5e7;strokeColor=#9673a6;" vertex="1" parent="1">
          <mxGeometry x="910" y="95" width="120" height="60" as="geometry" />
        </mxCell>
        <mxCell id="JE43KAWBD0UbRFeS0B9w-23" value="Operator&lt;br&gt;akin to f(a, b) -&amp;gt; c" style="rounded=0;whiteSpace=wrap;html=1;fillColor=#fff2cc;strokeColor=#d6b656;" vertex="1" parent="1">
          <mxGeometry x="910" y="210" width="120" height="60" as="geometry" />
        </mxCell>
        <mxCell id="JE43KAWBD0UbRFeS0B9w-24" value="&lt;div&gt;Set generator&lt;/div&gt;&lt;div&gt;f(a) -&amp;gt; b&lt;/div&gt;" style="rounded=0;whiteSpace=wrap;html=1;fillColor=#f8cecc;strokeColor=#b85450;" vertex="1" parent="1">
          <mxGeometry x="910" y="320" width="120" height="60" as="geometry" />
        </mxCell>
      </root>
    </mxGraphModel>
  </diagram>
</mxfile>
